<?xml version="1.0" encoding="utf-8"?>
<!-- Generator: Adobe Illustrator 19.0.0, SVG Export Plug-In . SVG Version: 6.00 Build 0)  -->
<svg version="1.1" id="Layer_1" xmlns="http://www.w3.org/2000/svg" xmlns:xlink="http://www.w3.org/1999/xlink" x="0px" y="0px"
	 width="75px" height="75px" viewBox="0 0 75 75" enable-background="new 0 0 75 75" xml:space="preserve">
<path fill="#04B16A" d="M72.1,24.5C66.9,10.6,53.5,0.7,37.7,0.7C17.4,0.7,1,17.2,1,37.5C1,51.6,8.9,63.8,20.5,70v-8c0,0,0,0,0,0
	c0,0,0,0,0,0c-3.2-4.4-5.1-9.8-5.1-15.7c0-4.4,1.1-8.5,2.9-12.1c0,0,0,0,0.1,0c1,0,2-0.1,3-0.4c0.7-0.2,1.4-0.5,2.1-0.8v38.5
	c4.3,1.8,9,2.8,14,2.9V57.7l0.8,0c5.1-0.1,9.9-2.1,13.6-5.6l1.1,1.1c-3.8,3.6-8.7,5.7-13.9,6v15c19.7-0.7,35.5-16.9,35.5-36.7
	C74.5,32.9,73.7,28.5,72.1,24.5z M24.9,29.4c-0.4,0.5-0.9,0.9-1.5,1.2v0c0,0,0,0,0,0c-0.3,0.2-0.5,0.3-0.8,0.5
	c-0.1,0.1-0.3,0.2-0.4,0.2c-0.1,0.1-0.2,0.1-0.4,0.2c-0.3,0.1-0.6,0.3-1,0.3c-0.2,0.1-0.4,0.1-0.7,0.2c0,0,0,0,0,0
	c-0.2,0-0.4,0.1-0.7,0.1c0,0,0,0,0,0c-0.4,0-0.7,0.1-1.1,0.1c-2.8,0-5.4-1.3-7.1-3.4c-0.4-0.5-0.7-0.9-1-1.5
	c0.4,0.4,0.9,0.8,1.4,1.1c1.4,0.8,3,1.3,4.6,1.3c0.8,0,1.6-0.1,2.4-0.3c2-0.6,3.7-1.8,4.8-3.3c0.2,0.2,0.4,0.4,0.6,0.7
	C24.8,27.4,25,28.3,24.9,29.4z M24.3,14.8c-0.7,0-1.3-0.6-1.3-1.3c0-0.7,0.6-1.3,1.3-1.3c0.7,0,1.3,0.6,1.3,1.3
	C25.6,14.2,25,14.8,24.3,14.8z M46.6,42.2c-9.7,0-17.6-7.9-17.6-17.6h1.6c0,8.8,7.2,16,16,16c8.8,0,16-7.2,16-16c0-8.8-7.2-16-16-16
	V7.1c9.7,0,17.6,7.9,17.6,17.6C64.2,34.4,56.3,42.2,46.6,42.2z"/>
</svg>
